<svg width="49" height="37" viewBox="0 0 49 37" fill="none" xmlns="http://www.w3.org/2000/svg">
<g id="&#240;&#159;&#166;&#134; icon &#34;envelope-alt&#34;">
<path id="Vector" d="M41.65 0H7.35C5.40066 0 3.53116 0.730913 2.15277 2.03195C0.774373 3.33298 0 5.09756 0 6.9375V30.0625C0 31.9024 0.774373 33.667 2.15277 34.9681C3.53116 36.2691 5.40066 37 7.35 37H41.65C43.5993 37 45.4688 36.2691 46.8472 34.9681C48.2256 33.667 49 31.9024 49 30.0625V6.9375C49 5.09756 48.2256 3.33298 46.8472 2.03195C45.4688 0.730913 43.5993 0 41.65 0ZM7.35 4.625H41.65C42.2998 4.625 42.923 4.86864 43.3824 5.30232C43.8419 5.73599 44.1 6.32419 44.1 6.9375L24.5 18.2225L4.9 6.9375C4.9 6.32419 5.15812 5.73599 5.61759 5.30232C6.07705 4.86864 6.70022 4.625 7.35 4.625ZM44.1 30.0625C44.1 30.6758 43.8419 31.264 43.3824 31.6977C42.923 32.1314 42.2998 32.375 41.65 32.375H7.35C6.70022 32.375 6.07705 32.1314 5.61759 31.6977C5.15812 31.264 4.9 30.6758 4.9 30.0625V12.21L23.226 22.7781C23.5984 22.9811 24.0209 23.0879 24.451 23.0879C24.8811 23.0879 25.3036 22.9811 25.676 22.7781L44.1 12.21V30.0625Z" fill="white"/>
</g>
</svg>
