<svg width="34" height="23" viewBox="0 0 34 23" fill="none" xmlns="http://www.w3.org/2000/svg">
<g id="linkedin-square-color-icon 1" clip-path="url(#clip0_58_139)">
<path id="Vector" fill-rule="evenodd" clip-rule="evenodd" d="M6.97266 0H27.0273C28.875 0.00345758 30.6456 0.501515 31.9521 1.38534C33.2586 2.26916 33.9949 3.46689 34 4.7168V18.2832C33.9949 19.5331 33.2586 20.7308 31.9521 21.6147C30.6456 22.4985 28.875 22.9965 27.0273 23H6.97266C5.12496 22.9965 3.35441 22.4985 2.04789 21.6147C0.74137 20.7308 0.00511121 19.5331 0 18.2832L0 4.7168C0.00511121 3.46689 0.74137 2.26916 2.04789 1.38534C3.35441 0.501515 5.12496 0.00345758 6.97266 0Z" fill="black"/>
<path id="Vector_2" fill-rule="evenodd" clip-rule="evenodd" d="M8.41977 9.42798H12.097V16.8888H8.41977V9.42798Z" fill="white"/>
<path id="Vector_3" fill-rule="evenodd" clip-rule="evenodd" d="M12.097 7.35417C12.0976 7.60051 11.99 7.84142 11.7881 8.0464C11.5861 8.25137 11.2987 8.4112 10.9624 8.50564C10.6261 8.60008 10.2559 8.62489 9.89871 8.57692C9.54153 8.52895 9.21341 8.41037 8.95592 8.23618C8.69842 8.06199 8.52312 7.84004 8.45221 7.59841C8.3813 7.35679 8.41798 7.10636 8.55758 6.87884C8.69719 6.65133 8.93346 6.45695 9.23647 6.32032C9.53948 6.18369 9.89561 6.11096 10.2598 6.11133C10.747 6.11133 11.2143 6.24227 11.5589 6.47535C11.9034 6.70843 12.097 7.02455 12.097 7.35417Z" fill="white"/>
<path id="Vector_4" fill-rule="evenodd" clip-rule="evenodd" d="M14.5485 9.42798H17.9407V10.6034H17.985C18.4582 10.0307 19.612 9.42798 21.3358 9.42798C24.9134 9.42798 25.5775 10.9347 25.5775 12.8944V16.8888H22.0441V13.3493C22.0441 12.5051 22.0192 11.4176 20.1986 11.4176C18.3779 11.4176 18.0763 12.3367 18.0763 13.2894V16.8888H14.5485V9.42798Z" fill="white"/>
</g>
<defs>
<clipPath id="clip0_58_139">
<rect width="34" height="23" fill="white"/>
</clipPath>
</defs>
</svg>
