<svg width="34" height="23" viewBox="0 0 34 23" fill="none" xmlns="http://www.w3.org/2000/svg">
<path id="twitter" d="M3.09091 0C1.38318 0 0 0.935682 0 2.09091V20.9091C0 22.0643 1.38318 23 3.09091 23H30.9091C32.6168 23 34 22.0643 34 20.9091V2.09091C34 0.935682 32.6168 0 30.9091 0H3.09091ZM7.18395 5.22727H14.3105L18.47 9.24982L23.6165 5.22727H25.8592L19.4782 10.2259L27.2839 17.7727H20.1573L15.5421 13.3091L9.84322 17.7727H7.56428L14.5279 12.3311L7.18395 5.22727ZM10.631 6.46467L21.0689 16.5292H23.8338L13.3929 6.46467H10.631Z" fill="white"/>
</svg>
