<svg width="39" height="34" viewBox="0 0 39 34" fill="none" xmlns="http://www.w3.org/2000/svg">
<path id="Vector" fill-rule="evenodd" clip-rule="evenodd" d="M19.4989 0.00588217C8.73175 0.00588217 0 7.80895 0 17.4338C0 25.1346 5.58652 31.6652 13.3345 33.9708C14.3097 34.1323 14.6681 33.5919 14.6681 33.1313C14.6681 32.7158 14.6487 31.343 14.6408 29.8878C9.21547 30.9422 8.07181 27.8306 8.07181 27.8306C7.18507 25.8158 5.9068 25.28 5.9068 25.28C4.1377 24.1973 6.04141 24.2211 6.04141 24.2211C7.99905 24.3434 9.02973 26.0159 9.02973 26.0159C10.7701 28.6804 13.5928 27.9091 14.7048 27.4646C14.8804 26.3382 15.3842 25.5688 15.9427 25.1333C11.6114 24.694 7.05838 23.199 7.05838 16.5203C7.05838 14.6181 7.8213 13.0626 9.06715 11.8429C8.86423 11.4029 8.19631 9.63133 9.25501 7.23119C9.25501 7.23119 10.8924 6.76225 14.6192 9.01762C16.1738 8.63229 17.8414 8.43801 19.4975 8.43158C21.155 8.43801 22.8255 8.63163 24.3823 9.01762C28.104 6.76356 29.7399 7.23119 29.7399 7.23119C30.8001 9.63198 30.1351 11.4049 29.9321 11.843C31.1823 13.0626 31.9388 14.6181 31.9388 16.5203C31.9388 23.2144 27.3757 24.6862 23.0349 25.1179C23.7345 25.6582 24.3592 26.719 24.3592 28.3439C24.3592 30.6746 24.3369 32.553 24.3369 33.1261C24.3369 33.59 24.6882 34.1323 25.6771 33.9624C33.4206 31.6556 39 25.1242 39 17.428C39 7.80437 30.2697 0 19.5004 0L19.499 0.00582771L19.4989 0.00588217Z" fill="#F9F9F9"/>
</svg>
