<svg width="34" height="23" viewBox="0 0 34 23" fill="none" xmlns="http://www.w3.org/2000/svg">
<path d="M17 0C11.526 0 4.42112 1.0964 4.42112 1.0964L4.40324 1.11274C1.9101 1.43148 0 3.14406 0 5.22681V11.499V11.501V17.7712V17.7732C0.0024329 18.7679 0.448368 19.7293 1.25774 20.4848C2.0671 21.2404 3.18688 21.7405 4.41602 21.8954L4.42112 21.9016C4.42112 21.9016 11.526 23 17 23C22.474 23 29.5789 21.9016 29.5789 21.9016L29.5814 21.8995C30.8119 21.7449 31.933 21.2444 32.743 20.488C33.5529 19.7315 33.9987 18.7689 34 17.7732V17.7712V11.501V11.499V5.22681C33.9982 4.23176 33.5525 3.26984 32.7431 2.51389C31.9337 1.75795 30.8135 1.25752 29.584 1.10253L29.5789 1.0964C29.5789 1.0964 22.474 0 17 0ZM13.0769 6.68868L23.5385 11.499L13.0769 16.3093V6.68868Z" fill="white"/>
</svg>
